<?xml version="1.0" standalone="no"?>
<!DOCTYPE svg PUBLIC "-//W3C//DTD SVG 20010904//EN"
 "http://www.w3.org/TR/2001/REC-SVG-20010904/DTD/svg10.dtd">
<svg version="1.0" xmlns="http://www.w3.org/2000/svg"
 width="300.000000pt" height="300.000000pt" viewBox="0 0 300.000000 300.000000"
 preserveAspectRatio="xMidYMid meet">
<metadata>
Created by potrace 1.16, written by Peter Selinger 2001-2019
</metadata>
<g transform="translate(0.000000,300.000000) scale(0.100000,-0.100000)"
fill="#000000" stroke="none">
<path d="M816 1918 c-25 -28 -46 -54 -46 -58 0 -3 12 -20 28 -38 15 -17 63
-74 107 -128 44 -53 115 -139 158 -189 42 -51 77 -97 77 -102 0 -5 -35 -21
-77 -36 -190 -64 -460 -158 -478 -166 -11 -4 -66 -24 -123 -42 -108 -36 -126
-55 -67 -71 91 -25 288 -51 420 -55 l151 -6 169 56 c94 31 310 102 480 158
664 218 1057 349 1085 364 17 9 57 42 90 74 56 55 60 62 60 104 0 59 -25 79
-117 96 -81 14 -143 2 -368 -74 -77 -26 -205 -70 -285 -96 -80 -27 -178 -60
-218 -74 l-72 -24 -78 30 c-42 17 -86 34 -97 39 -11 5 -67 28 -125 50 -58 22
-114 45 -125 50 -11 5 -67 28 -125 50 -58 23 -159 64 -225 91 -66 27 -128 49
-136 49 -9 0 -37 -23 -63 -52z"/>
<path d="M182 1427 c-18 -18 -32 -38 -32 -45 0 -12 77 -107 142 -177 15 -16
28 -33 28 -37 0 -22 50 -14 147 21 59 22 120 43 136 46 42 11 32 33 -25 59
-29 13 -119 55 -199 95 -81 39 -151 71 -156 71 -5 0 -23 -15 -41 -33z"/>
</g>
</svg>
